<?xml version="1.0" standalone="no"?>
<!DOCTYPE svg PUBLIC "-//W3C//DTD SVG 1.1//EN" "http://www.w3.org/Graphics/SVG/1.1/DTD/svg11.dtd" >
<svg xmlns="http://www.w3.org/2000/svg">
<metadata>Generated by IcoMoon</metadata>
<defs>
<font id="icomoon" horiz-adv-x="1024">
<font-face units-per-em="1024" ascent="960" descent="-64" />
<missing-glyph horiz-adv-x="1024" />
<glyph unicode="&#x20;" horiz-adv-x="512" d="" />
<glyph unicode="&#xe900;" glyph-name="ai-create" d="M768 960h-512c-140.8 0-256-115.2-256-256v-512c0-140.8 115.2-256 256-256h512c140.8 0 256 115.2 256 256v512c0 140.8-115.2 256-256 256zM960 192c0-108.8-83.2-192-192-192h-512c-108.8 0-192 83.2-192 192v512c0 108.8 83.2 192 192 192h512c108.8 0 192-83.2 192-192v-512zM691.911 502.756h-125.156v125.156c0 31.289-23.467 54.756-54.756 54.756s-54.756-23.467-54.756-54.756v-125.156h-125.156c-31.289 0-54.756-23.467-54.756-54.756s23.467-54.756 54.756-54.756h125.156v-125.156c0-31.289 23.467-54.756 54.756-54.756s54.756 23.467 54.756 54.756v125.156h125.156c31.289 0 54.756 23.467 54.756 54.756s-23.467 54.756-54.756 54.756z" />
<glyph unicode="&#xe901;" glyph-name="ai-dtg" horiz-adv-x="1040" d="M493.493 822.195c-13.625 122.086-302.734 8.299-351.962-9.678-13.954-5.105-38.107-16.543-51.885-22.103 19.502-519.502 410.208-757.18 410.208-757.18s-1.835 748.381-6.361 788.961zM404.715 689.691l8.888-466.444c-229.384 241.659-227.955 484.935-227.955 484.935 221.791 131.453 219.067-18.49 219.067-18.49zM912.7 572.44c0 0 13.475 34.512 23.002 76.775 31.519 139.776 11.091 148.089-79.918 184.766-68.473 27.593-137.337 39.486-210.453 48.088-23.558 2.771-65.105 4.849-86.092-10.043-25.295-17.96-23.258-61.082-22.58-87.861 3.102-122.184 5.648-747.892 5.648-747.892s170.409 97.86 310.894 376.971c0 0 21.839 58.762-27.805 94.67-49.664 35.894-130.467 87.393-130.467 87.393l-0.572-89.501c64.89-39.462 69.469-49.746 68.445-69.77-2.279-44.813-63.588-133.037-63.588-133.037s-67.287-102.713-69.859-22.788c-1.806 56.393 1.193 377.828 1.193 377.828s-12.921 138.74 103.414 110.277c78.483-19.198 142.281-21.153 98.995-149.112l79.743-46.764zM528.541-64l-7.655 3.87c-4.884 2.447-120.839 61.84-242.833 200.85-71.55 81.52-130.138 173.599-174.147 273.666-54.951 124.998-87.171 262.808-95.754 409.641l-0.546 9.488 8.357 4.522c2.308 1.259 57.765 31.035 150.52 61.148 85.43 27.743 219.778 60.814 374.652 60.814 174.384 0 338.631-41.035 488.162-121.962l8.387-4.537-0.597-9.528c-0.361-5.94-9.83-147.583-76.105-328.193-38.958-106.117-89.532-203.405-150.344-289.157-76.159-107.39-168.647-196.881-274.902-265.946l-7.193-4.677zM38.578 816.050c21.024-318.887 153.694-532.326 261.905-655.628 100.892-114.96 199.072-174.507 226.382-189.842 228.418 151.6 346.654 373.939 405.746 534.603 55.416 150.657 70.572 276.502 73.879 311.184-142.822 75.498-299.321 113.772-465.358 113.772-257.16 0-459.631-92.853-502.553-114.089z" />
<glyph unicode="&#xe902;" glyph-name="ai-games" horiz-adv-x="1518" d="M706.207-64h-597.56c-59.901 0-108.647 45.926-108.647 102.4v51.2c209.653 0 380.265 160.768 380.265 358.4s-170.612 358.4-380.265 358.4v51.2c0 56.474 48.746 102.4 108.647 102.4h597.56v-314.47c-93.473-22.903-162.971-102.383-162.971-197.53s69.498-174.626 162.971-197.53v-314.47zM0 183.172v512c146.026 0 264.828-114.842 264.828-256s-118.802-256-264.828-256zM759.172 553.931c58.403 0 105.931-47.51 105.931-105.931s-47.528-105.931-105.931-105.931c-58.403 0-105.931 47.51-105.931 105.931s47.528 105.931 105.931 105.931zM1518.345 695.172v-512c-146.026 0-264.828 114.842-264.828 256s118.802 256 264.828 256zM1518.345 89.6v-51.2c0-56.474-48.746-102.4-108.647-102.4h-597.56v314.47c93.473 22.903 162.971 102.383 162.971 197.53s-69.498 174.626-162.971 197.53v314.47h597.56c59.901 0 108.647-45.926 108.647-102.4v-51.2c-209.653 0-380.265-160.768-380.265-358.4s170.612-358.4 380.265-358.4z" />
<glyph unicode="&#xe903;" glyph-name="ai-home" horiz-adv-x="1077" d="M1032.817-64h-344.077c-24.361 0-44.16 19.987-44.16 44.55v296.442c-6.775 14.214-35.17 63.897-104.565 63.897h-3.041c-69.407 0-97.79-49.683-104.84-64.923l0.275-295.416c0-24.564-19.812-44.55-44.16-44.55h-344.089c-24.349 0-44.16 19.987-44.16 44.55v436.228c0 11.895 4.585 23.078 12.916 31.483l494.346 498.712c17.202 17.354 45.214 17.378 62.44 0.012l494.334-498.712c8.344-8.429 12.928-19.612 12.928-31.496v-436.228c0-24.564-19.8-44.55-44.148-44.55z" />
<glyph unicode="&#xe904;" glyph-name="ai-notifications" horiz-adv-x="918" d="M453.246-64c55.239 0 101.98 35.556 120.393 85.333h-240.787c18.413-49.778 65.154-85.333 120.393-85.333zM888.079 139.378c-38.243 14.222-123.226 69.689-123.226 280.178v99.556c0 231.41-140.166 300.174-271.112 310.841 13.385 14.222 30.325 24.32 30.325 58.937 0 39.822-31.161 71.111-70.82 71.111s-70.82-31.289-70.82-71.111c0-24.178 12.748-45.511 31.161-58.311-131.725-11.378-271.948-79.644-271.948-311.467v-99.556c0-210.489-84.984-265.956-123.226-278.756-11.331-4.267-18.413-15.644-18.413-27.022v-64h906.492v64c0 11.378-7.082 22.756-18.413 25.6z" />
<glyph unicode="&#xe905;" glyph-name="ai-profile" d="M707.491 550.4c0-102.825-83.356-186.182-186.182-186.182s-186.182 83.356-186.182 186.182c0 102.825 83.356 186.182 186.182 186.182s186.182-83.356 186.182-186.182zM512 960c-281.987 0-512-228.907-512-512s230.013-512 512-512c281.987 0 512 230.013 512 512s-230.013 512-512 512zM812.786 125.097c-37.598 100.631-119.43 207.896-300.786 207.896-180.251 0-263.188-107.266-300.786-207.896-86.255 80.726-141.546 195.732-141.546 322.903 0 243.283 197.944 442.333 442.333 442.333s442.333-197.944 442.333-442.333c0-127.171-55.292-242.177-141.546-322.903z" />
<glyph unicode="&#xe906;" glyph-name="dtg" horiz-adv-x="1031" d="M520.894-63.945l-7.653 3.868c-4.883 2.446-120.806 61.807-242.767 200.744-71.53 81.477-130.103 173.507-174.099 273.521-54.936 124.932-87.148 262.669-95.728 409.424l-0.545 9.483 8.354 4.52c2.307 1.259 57.749 31.019 150.479 61.115 85.407 27.728 219.718 60.781 374.549 60.781 174.336 0 338.539-41.013 488.029-121.897l8.384-4.535-0.597-9.523c-0.361-5.937-9.827-147.505-76.084-328.020-38.947-106.061-89.508-203.297-150.303-289.004-76.139-107.333-168.601-196.777-274.827-265.805l-7.191-4.674zM487.611 822.243c-13.66 121.881-303.497 8.285-352.849-9.662-13.99-5.097-38.203-16.515-52.015-22.066 19.551-518.628 411.242-755.906 411.242-755.906s-1.839 747.122-6.377 787.633zM398.609 689.961l8.911-465.66c-229.962 241.252-228.529 484.119-228.529 484.119 222.35 131.232 219.619-18.459 219.619-18.459zM906.828 571.235c0 0 13.493 34.542 23.034 76.841 31.563 139.895 11.106 148.215-80.029 184.924-68.567 27.617-137.527 39.52-210.744 48.129-23.59 2.773-65.195 4.853-86.211-10.052-25.33-17.975-23.29-61.135-22.611-87.936 3.106-122.288 5.656-748.533 5.656-748.533s170.644 97.944 311.323 377.294c0 0 21.869 58.813-27.843 94.751-49.733 35.925-130.647 87.468-130.647 87.468l-0.573-89.578c64.98-39.496 69.565-49.789 68.54-69.83-2.283-44.851-63.676-133.151-63.676-133.151s-67.379-102.801-69.955-22.808c-1.808 56.441 1.194 378.152 1.194 378.152s-12.938 138.859 103.556 110.371c78.592-19.215 142.478-21.171 99.132-149.239l79.853-46.804z" />
<glyph unicode="&#xe907;" glyph-name="ai-comment" horiz-adv-x="1037" d="M1002.102-52.985c4.595 0 9.203 0.945 13.548 2.901 11.868 5.33 19.495 17.145 19.495 30.155v684.308c0 163-132.621 295.621-295.621 295.621h-443.904c-163 0-295.621-132.621-295.621-295.621v-196.923c0-163 132.621-295.621 295.621-295.621h440.674l243.856-216.484c6.183-5.474 14.021-8.336 21.95-8.336zM733.077 880.758c122.879 0 222.84-98.473 222.84-219.497v-584.124l-192.987 168.747c-6.169 5.399-14.174 8.236-22.434 7.96-1.555-0.063-3.085-0.163-4.627-0.264-0.931-0.075-1.861-0.163-2.804-0.163h-431.009c-122.879 0-222.84 98.473-222.84 219.497v188.334c0 121.036 99.973 219.497 222.84 219.497l431.021 0.013z" />
<glyph unicode="&#xe908;" glyph-name="ai-heart-outline" horiz-adv-x="1112" d="M806.558 960c-97.343 0-189.119-44.645-250.311-117.192-61.195 72.547-152.968 117.192-250.311 117.192-172.442 0-305.936-133.923-305.936-306.92 0-212.043 189.119-382.261 475.58-644.517l80.667-72.563 80.667 72.563c286.459 262.259 475.58 432.477 475.58 644.517 0 172.997-133.494 306.92-305.936 306.92zM590.574 81.981l-11.283-10.328-23.044-20.728-23.041 20.725-11.269 10.317c-134.831 123.419-251.277 230.011-328.255 325.317-74.764 92.568-108.104 168.373-108.104 245.795 0 60.973 22.523 117.149 63.42 158.176 40.761 40.891 96.495 63.411 156.939 63.411 69.889 0 138.981-32.445 184.818-86.787l65.493-77.643 65.49 77.643c45.84 54.341 114.929 86.787 184.821 86.787 60.446 0 116.178-22.52 156.942-63.408 40.895-41.029 63.417-97.203 63.417-158.179 0-77.421-33.34-153.224-108.099-245.789-76.976-95.307-193.416-201.891-328.245-325.309z" />
<glyph unicode="&#xe909;" glyph-name="ai-heart" horiz-adv-x="1106" d="M801.792 960c-96.768 0-188.001-44.645-248.832-117.192-60.834 72.547-152.064 117.192-248.832 117.192-171.423 0-304.128-133.923-304.128-306.92 0-212.043 188.001-382.261 472.77-644.517l80.19-72.563 80.19 72.563c284.766 262.259 472.77 432.477 472.77 644.517 0 172.997-132.705 306.92-304.128 306.92z" />
<glyph unicode="&#xe90a;" glyph-name="ai-share" horiz-adv-x="802" d="M445.727 807.79v-159.443h267.655c49.113 0 88.927-39.825 88.927-88.779v-534.79c0-49.031-39.787-88.779-88.927-88.779h-624.456c-49.113 0-88.927 39.825-88.927 88.779v534.79c0 49.031 39.787 88.779 88.927 88.779h267.655v159.587l-50.343-50.286c-17.246-17.226-45.217-17.218-62.745 0.29-17.407 17.387-17.304 45.679-0.291 62.673l126.652 126.507c8.575 8.566 19.802 12.87 31.079 12.881l0.34-0.133c11.32-0.024 22.576-4.298 31.035-12.748l126.652-126.507c17.246-17.226 17.237-45.165-0.291-62.673-17.407-17.387-45.731-17.284-62.745-0.29l-50.199 50.141zM356.582 559.304h-267.436v-534.261h624.018v534.261h-267.436v-178.154c0-24.552-19.784-44.455-44.573-44.455-24.617 0-44.573 19.923-44.573 44.455v178.154zM222.864 648.348v-89.043h356.582v89.043h-356.582zM356.582 648.348h89.145v-89.043h-89.145v89.043z" />
<glyph unicode="&#xe90b;" glyph-name="ai-refresh" horiz-adv-x="1390" d="M379.984-13.513h573.482c208.921 0 379.984 164.446 379.984 368.304s-171.063 368.304-381.386 368.304h-51.88c-37.858 0-68.706-29.899-68.706-66.594s30.847-66.594 68.706-66.594h51.88c133.205 0 242.573-104.647 242.573-235.116s-107.966-235.116-242.573-235.116h-572.080c-133.205 0-242.573 104.647-242.573 235.116s107.966 235.116 242.573 235.116h114.977l-81.325-78.825c-26.641-25.822-26.641-67.953 0-93.775s70.108-25.822 96.749 0l199.106 192.986c26.641 25.822 26.641 67.953 0 93.775l-199.106 191.627c-14.022 13.591-30.847 19.027-49.075 19.027s-35.054-6.795-49.075-19.027c-26.641-25.822-26.641-67.953 0-93.775l81.325-78.825h-114.977c-208.921 0-378.582-165.805-378.582-368.304s169.661-368.304 379.984-368.304z" />
<glyph unicode="&#xe90c;" glyph-name="ai-hot" horiz-adv-x="845" d="M671.616 658.445l-13.888 11.174c-16.358 13.158-41.114 8.141-50.138-10.816-4.39-9.216-7.488-102.515-7.488-118.234 0-3.174-0.666-8.384-0.589-8.934 0-13.261-11.866-23.782-25.536-21.53-10.752 1.766-18.099 11.968-18.15 22.861-0.691 159.565-49.446 270.835-138.931 353.933-54.72 50.816-119.424 95.693-139.226 60.659-5.056-8.934 3.302-29.018 11.725-54.746 18.714-57.229-38.387-148.621-119.104-239.949-75.866-85.85-170.291-192.704-170.291-350.131 0-154.112 106.189-298.202 248.883-365.312 12.8-6.016 25.178 9.907 16.115 20.762-31.334 37.542-49.357 86.566-46.797 139.866 4.966 103.232 89.958 188.070 193.19 192.832 116.531 5.389 212.71-87.501 212.71-202.854 0-49.306-17.6-94.464-46.835-129.613-9.203-11.072 2.739-27.2 15.77-21.082 142.771 67.085 249.037 211.213 249.037 365.389 0 133.786-63.731 266.765-170.458 355.725z" />
<glyph unicode="&#xe90d;" glyph-name="ai-new" d="M1018.182 448c0 6.982-3.491 12.8-8.145 16.291l-119.855 84.945 61.673 133.818c2.327 5.818 2.327 12.8-1.164 18.618s-9.309 9.309-16.291 10.473l-146.618 12.8-12.8 146.618c-1.164 6.982-4.655 12.8-10.473 16.291s-12.8 3.491-18.618 1.164l-133.818-61.673-83.782 118.691c-8.145 10.473-25.6 10.473-32.582 0l-84.945-119.855-133.818 61.673c-5.818 2.327-12.8 2.327-18.618-1.164s-9.309-9.309-10.473-16.291l-12.8-146.618-146.618-12.8c-6.982-1.164-12.8-4.655-16.291-10.473s-3.491-12.8-1.164-18.618l61.673-133.818-118.691-83.782c-5.818-3.491-8.145-10.473-8.145-16.291s3.491-12.8 8.145-16.291l119.855-84.945-61.673-133.818c-2.327-5.818-2.327-12.8 1.164-18.618s9.309-9.309 16.291-10.473l146.618-12.8 12.8-146.618c1.164-6.982 4.655-12.8 10.473-16.291s12.8-3.491 18.618-1.164l133.818 61.673 84.945-119.855c3.491-5.818 10.473-8.145 16.291-8.145 6.982 0 12.8 3.491 16.291 8.145l84.945 119.855 133.818-61.673c5.818-2.327 12.8-2.327 18.618 1.164s9.309 9.309 10.473 16.291l12.8 146.618 146.618 12.8c6.982 1.164 12.8 4.655 16.291 10.473s3.491 12.8 1.164 18.618l-61.673 133.818 119.855 84.945c3.491 3.491 5.818 10.473 5.818 16.291z" />
<glyph unicode="&#xe90e;" glyph-name="ai-top" horiz-adv-x="874" d="M40.96 345.6h163.84c22.622 0 40.96-18.338 40.96-40.96v-327.68c0-22.622-18.338-40.96-40.96-40.96h-163.84c-22.622 0-40.96 18.338-40.96 40.96v327.68c0 22.622 18.338 40.96 40.96 40.96zM669.013 482.133h163.84c22.622 0 40.96-18.338 40.96-40.96v-464.213c0-22.622-18.338-40.96-40.96-40.96h-163.84c-22.622 0-40.96 18.338-40.96 40.96v464.213c0 22.622 18.338 40.96 40.96 40.96zM559.787 610.17v-633.21c0-22.622-18.338-40.96-40.96-40.96h-163.84c-22.622 0-40.96 18.338-40.96 40.96v633.21h-63.324c-11.904 0-22.842 6.378-28.311 16.902-5.791 10.205-5.147 22.961 1.609 32.527l193.030 287.007c11.904 17.858 41.501 17.858 53.405 0l193.030-287.007c6.756-9.567 7.399-22.323 1.609-32.527-5.469-10.524-16.408-16.902-28.311-16.902h-76.977z" />
<glyph unicode="&#xe90f;" glyph-name="AI-check" horiz-adv-x="1317" d="M1273.417 927.817c-42.835 42.782-112.228 42.782-155.063 0l-698.514-699.246-232.594 234.057c-43.229 40.281-110.593 39.092-152.374-2.688s-42.97-109.146-2.688-152.374l310.126-310.126c42.835-42.782 112.228-42.782 155.063 0l776.046 775.314c42.782 42.835 42.782 112.228 0 155.063v0z" />
<glyph unicode="&#xe910;" glyph-name="ai-feed" horiz-adv-x="1013" d="M991.663 501.895l-439.781 431.158c-24.792 24.792-65.752 24.792-90.543 0l-439.781-431.158c-25.869-24.792-25.869-65.752-1.078-91.621s65.752-25.869 91.621-1.078l2.156 2.156 129.347-443.015c5.389-14.013 18.324-22.636 34.493-22.636h455.949c15.091 0 29.103 8.623 34.493 22.636l129.347 443.015 2.156-2.156c12.935-11.857 29.103-18.324 45.272-18.324 17.246 0 33.415 6.467 46.349 19.402 25.869 25.869 25.869 66.829 0 91.621z" />
<glyph unicode="&#xe911;" glyph-name="ai-sort" horiz-adv-x="1434" d="M1331.2 755.2h-1228.8c-56.554 0-102.4 45.846-102.4 102.4s45.846 102.4 102.4 102.4h1228.8c56.554 0 102.4-45.846 102.4-102.4s-45.846-102.4-102.4-102.4zM1024 345.6h-921.6c-56.554 0-102.4 45.846-102.4 102.4s45.846 102.4 102.4 102.4h921.6c56.554 0 102.4-45.846 102.4-102.4s-45.846-102.4-102.4-102.4zM409.6-64h-307.2c-56.554 0-102.4 45.846-102.4 102.4s45.846 102.4 102.4 102.4h307.2c56.554 0 102.4-45.846 102.4-102.4s-45.846-102.4-102.4-102.4z" />
<glyph unicode="&#xe912;" glyph-name="ai-moon-f" horiz-adv-x="951" d="M471.247 953.32c-6.4 0-12.422-3.413-15.653-8.838-3.572-5.876-3.547-13.19 0.085-19.066 45.702-73.947 69.851-159.134 69.851-246.345 0-258.792-210.542-469.333-469.333-469.333-9.387 0-19.2 0.354-30.318 1.073l-1.987 0.122c-6.242 0-12.166-3.401-15.482-8.911-3.499-5.839-3.462-13.105 0.134-19.005 93.001-150.491 253.976-240.335 430.592-240.335 278.955 0 505.905 226.95 505.905 505.905 0.012 265.777-207.579 487.461-473.795 504.734z" />
<glyph unicode="&#xe913;" glyph-name="ai-moon-o" horiz-adv-x="951" d="M471.247 953.32c-6.4 0-12.422-3.413-15.653-8.838-3.572-5.876-3.547-13.19 0.085-19.066 45.702-73.947 69.851-159.134 69.851-246.345 0-258.792-210.542-469.333-469.333-469.333-9.387 0-19.2 0.354-30.318 1.073l-1.987 0.122c-6.242 0-12.166-3.401-15.482-8.911-3.499-5.839-3.462-13.105 0.134-19.005 93.001-150.491 253.976-240.335 430.592-240.335 278.955 0 505.905 226.95 505.905 505.905 0.012 265.777-207.579 487.461-473.795 504.734zM439.15-20.748c-151.467 0-291.828 72.058-380.026 193.926 277.626 1.573 502.979 227.901 502.979 505.893 0 81.688-19.785 162.146-57.429 234.167 228.267-32.134 403.81-231.851 403.81-464.652 0-258.792-210.542-469.333-469.333-469.333z" />
</font>
</defs>
</svg>
