<!-- Generated by IcoMoon.io -->
<svg version="1.1" xmlns="http://www.w3.org/2000/svg" width="32" height="32" viewBox="0 0 32 32">
<title>ai-comment</title>
<path d="M31.316 31.656c0.144 0 0.288-0.030 0.423-0.091 0.371-0.167 0.609-0.536 0.609-0.942v-21.385c0-5.094-4.144-9.238-9.238-9.238h-13.872c-5.094 0-9.238 4.144-9.238 9.238v6.154c0 5.094 4.144 9.238 9.238 9.238h13.771l7.62 6.765c0.193 0.171 0.438 0.261 0.686 0.261zM22.909 2.476c3.84 0 6.964 3.077 6.964 6.859v18.254l-6.031-5.273c-0.193-0.169-0.443-0.257-0.701-0.249-0.049 0.002-0.096 0.005-0.145 0.008-0.029 0.002-0.058 0.005-0.088 0.005h-13.469c-3.84 0-6.964-3.077-6.964-6.859v-5.885c0-3.782 3.124-6.859 6.964-6.859l13.469-0z"></path>
</svg>
