<?xml version="1.0" encoding="UTF-8"?>
<svg width="79px" height="78px" viewBox="0 0 79 78" version="1.1" xmlns="http://www.w3.org/2000/svg" xmlns:xlink="http://www.w3.org/1999/xlink">
    <!-- Generator: Sketch 46.2 (44496) - http://www.bohemiancoding.com/sketch -->
    <title>Shape</title>
    <desc>Created with Sketch.</desc>
    <defs></defs>
    <g id="Page-1" stroke="none" stroke-width="1" fill="none" fill-rule="evenodd">
        <g id="comment" fill-rule="nonzero" fill="#000000">
            <path d="M2.517,77.161 C2.167,77.161 1.816,77.089 1.485,76.94 C0.581,76.534 0,75.634 0,74.643 L0,22.518 C0,10.102 10.102,0 22.518,0 L56.331,0 C68.747,0 78.849,10.102 78.849,22.518 L78.849,37.518 C78.849,49.934 68.747,60.036 56.331,60.036 L22.764,60.036 L4.189,76.526 C3.718,76.943 3.121,77.161 2.517,77.161 Z M23.0091478,6.036 C13.6491899,6.036 6.035,13.5369093 6.035,22.7554818 L6.035,67.2492727 L20.7351829,54.3954896 C21.2051227,53.9842451 21.8148793,53.7681026 22.4440549,53.789143 C22.5625108,53.7939249 22.6790248,53.801576 22.7965098,53.8092271 C22.8673891,53.8149654 22.9382685,53.82166 23.0101188,53.82166 L55.840851,53.82166 C65.2008089,53.82166 72.8149988,46.3207508 72.8149988,37.1021782 L72.8149988,22.7564382 C72.8149988,13.5369093 65.199838,6.03695638 55.840851,6.03695638 L23.0091478,6.03695638 L23.0091478,6.036 Z" id="Shape" transform="translate(39.424500, 38.580500) scale(-1, 1) translate(-39.424500, -38.580500) "></path>
        </g>
    </g>
</svg>